<svg xmlns="http://www.w3.org/2000/svg" viewBox="0 0 500 500" width="500" height="500">
<g transform="translate(0,500) scale(0.1,-0.1)" fill="currentColor" stroke="none">
<path d="M2401 3729 c-602 -71 -990 -672 -831 -1284 22 -83 103 -262 137 -304 l20 -24 43 42 c38 37 128 108 173 136 14 9 11 20 -23 90 -54 109 -80 216 -80 331 0 270 122 493 341 626 239 145 555 106 759 -93 109 -106 165 -204 201 -354 40 -169 17 -363 -62 -515 -35 -67 -38 -76 -23 -85 34 -20 130 -95 173 -135 33 -30 47 -37 57 -29 21 17 112 208 133 279 35 119 44 184 44 320 0 148 -19 247 -75 392 -77 203 -266 411 -461 509 -160 81 -358 118 -526 98z"/>
<path d="M2359 3137 c-71 -30 -120 -68 -163 -126 -49 -67 -67 -116 -73 -201 -12 -176 94 -329 265 -385 78 -26 202 -17 273 18 99 49 164 123 198 224 64 192 -35 401 -224 472 -79 30 -200 29 -276 -2z"/>
<path d="M2385 2220 c-56 -8 -165 -40 -243 -71 -30 -13 -34 -12 -58 14 -13 15 -30 27 -37 27 -30 0 -192 -128 -209 -166 -9 -19 -6 -28 17 -56 67 -82 210 -218 227 -218 11 0 42 19 70 42 27 24 71 54 97 68 39 22 46 30 45 55 0 17 -2 37 -5 45 -3 11 14 19 66 33 117 31 369 6 356 -34 -3 -8 -5 -27 -5 -43 -1 -25 6 -33 44 -53 25 -13 68 -44 95 -68 28 -25 59 -45 71 -45 13 0 56 35 117 98 109 110 137 144 137 164 0 26 -182 178 -214 178 -5 0 -23 -12 -38 -27 -26 -25 -31 -26 -61 -15 -186 73 -314 92 -472 72z"/>
<path d="M2385 1737 c-84 -28 -185 -95 -185 -123 0 -8 53 -69 118 -135 64 -66 131 -136 149 -155 l31 -34 44 43 c155 157 258 268 258 278 0 20 -61 68 -129 102 -55 27 -76 32 -155 34 -56 2 -106 -2 -131 -10z"/>
</g>
</svg>
